<?xml version="1.0" encoding="UTF-8" standalone="no"?>
<!-- Generator: Adobe Illustrator 15.0.0, SVG Export Plug-In . SVG Version: 6.00 Build 0)  -->

<svg
   xmlns:dc="http://purl.org/dc/elements/1.1/"
   xmlns:cc="http://creativecommons.org/ns#"
   xmlns:rdf="http://www.w3.org/1999/02/22-rdf-syntax-ns#"
   xmlns:svg="http://www.w3.org/2000/svg"
   xmlns="http://www.w3.org/2000/svg"
   xmlns:sodipodi="http://sodipodi.sourceforge.net/DTD/sodipodi-0.dtd"
   xmlns:inkscape="http://www.inkscape.org/namespaces/inkscape"
   version="1.1"
   id="Capa_1"
   x="0px"
   y="0px"
   width="760"
   height="60.543999"
   viewBox="0 0 760 60.544"
   enable-background="new 0 0 690 48.544"
   xml:space="preserve"
   sodipodi:docname="webmethods.io_integration.svg"
   inkscape:version="0.92.4 (5da689c313, 2019-01-14)"><metadata
   id="metadata3825"><rdf:RDF><cc:Work
       rdf:about=""><dc:format>image/svg+xml</dc:format><dc:type
         rdf:resource="http://purl.org/dc/dcmitype/StillImage" /><dc:title></dc:title></cc:Work></rdf:RDF></metadata><defs
   id="defs3823" /><sodipodi:namedview
   pagecolor="#ffffff"
   bordercolor="#666666"
   borderopacity="1"
   objecttolerance="10"
   gridtolerance="10"
   guidetolerance="10"
   inkscape:pageopacity="0"
   inkscape:pageshadow="2"
   inkscape:window-width="1920"
   inkscape:window-height="1019"
   id="namedview3821"
   showgrid="false"
   inkscape:zoom="2.5507246"
   inkscape:cx="208.44765"
   inkscape:cy="24.271999"
   inkscape:window-x="-9"
   inkscape:window-y="-9"
   inkscape:window-maximized="1"
   inkscape:current-layer="Capa_1" />
<polygon
   points="41.947,36.557 34.949,36.557 27.094,11.885 26.993,11.885 19.138,36.557 12.389,36.557 1.815,0.908 10.375,0.908 16.067,23.769 16.167,23.769 23.618,0.908 30.92,0.908 38.323,24.372 38.423,24.372 44.416,0.908 52.372,0.908 "
   id="polygon3770"
   style="fill:#305aa6"
   transform="translate(74,8.0000023)" />
<polygon
   points="80.423,8.159 64.059,8.159 64.059,14.806 79.518,14.806 79.518,22.057 64.059,22.057 64.059,29.307 81.331,29.307 81.331,36.557 56.204,36.557 56.204,0.908 80.423,0.908 "
   id="polygon3772"
   style="fill:#305aa6"
   transform="translate(74,8.0000023)" />
<path
   d="m 175.224,8.9090023 c 6.295,0 12.74,1.5599997 12.74,9.0619997 0,3.978 -2.468,6.698 -6.145,7.854 v 0.103 c 4.18,0.503 7.806,3.624 7.806,8.711 0,7.451 -7.048,9.919 -13.344,9.919 H 161.628 V 8.9090023 Z m 0.101,14.2489997 c 2.417,0 4.784,-1.159 4.784,-3.876 0,-2.871 -2.72,-3.727 -5.137,-3.727 h -5.489 v 7.604 h 5.842 z m 1.359,14.754 c 2.567,0 5.086,-1.311 5.086,-4.18 0,-3.273 -3.576,-3.928 -6.143,-3.928 h -6.144 v 8.107 h 7.201 z"
   id="path3774"
   inkscape:connector-curvature="0"
   style="fill:#305aa6" />
<polygon
   points="143.224,36.557 137.23,36.557 128.217,9.214 128.117,9.214 128.117,36.557 120.262,36.557 120.262,0.908 132.144,0.908 140.352,24.172 140.453,24.172 148.711,0.908 160.544,0.908 160.544,36.557 152.689,36.557 152.689,9.214 152.588,9.214 "
   id="polygon3776"
   style="fill:#305aa6"
   transform="translate(74,8.0000023)" />
<polygon
   points="192.322,8.159 175.958,8.159 175.958,14.806 191.417,14.806 191.417,22.057 175.958,22.057 175.958,29.307 193.227,29.307 193.227,36.557 168.103,36.557 168.103,0.908 192.322,0.908 "
   id="polygon3778"
   style="fill:#305aa6"
   transform="translate(74,8.0000023)" />
<polygon
   points="224.452,7.856 214.28,7.856 214.28,36.557 206.425,36.557 206.425,7.856 196.253,7.856 196.253,0.908 224.452,0.908 "
   id="polygon3780"
   style="fill:#305aa6"
   transform="translate(74,8.0000023)" />
<polygon
   points="236.288,14.2 251.544,14.2 251.544,0.908 259.398,0.908 259.398,36.557 251.544,36.557 251.544,21.15 236.288,21.15 236.288,36.557 228.433,36.557 228.433,0.908 236.288,0.908 "
   id="polygon3782"
   style="fill:#305aa6"
   transform="translate(74,8.0000023)" />
<path
   d="m 377.213,26.733002 c 0,11.33 -8.058,18.731 -19.236,18.731 -11.228,0 -19.236,-7.351 -19.236,-18.731 0,-11.379 8.008,-18.7329997 19.236,-18.7329997 11.329,0 19.236,7.4019997 19.236,18.7329997 m -19.236,11.48 c 6.646,0 11.078,-4.784 11.078,-11.48 0,-6.698 -4.432,-11.48 -11.128,-11.48 -6.596,0 -11.027,4.734 -11.027,11.48 -10e-4,6.697 4.379,11.48 11.077,11.48"
   id="path3784"
   inkscape:connector-curvature="0"
   style="fill:#305aa6" />
<path
   d="m 394.639,8.9070023 c 11.278,0 20.796,5.0849997 20.796,17.8769997 0,11.329 -9.165,17.774 -19.84,17.774 H 382.554 V 8.9070023 Z m 0.101,28.3999997 c 7,0 12.539,-2.871 12.539,-10.826 0,-7.1 -5.639,-10.323 -12.036,-10.323 h -4.833 v 21.148 h 4.33 z"
   id="path3786"
   inkscape:connector-curvature="0"
   style="fill:#305aa6" />
<path
   d="m 443.789,11.728002 -5.389,5.891 c -1.259,-1.61 -3.777,-2.366 -5.691,-2.366 -2.164,0 -5.287,1.006 -5.287,3.675 0,3.122 3.777,3.777 7.705,4.986 4.28,1.308 8.71,3.373 8.71,9.817 0,8.108 -6.495,11.733 -13.746,11.733 -4.582,0 -8.61,-1.308 -11.983,-4.481 l 5.587,-6.144 c 1.663,2.115 4.18,3.375 6.85,3.375 2.164,0 5.438,-0.958 5.438,-3.727 0,-3.123 -3.776,-3.929 -7.754,-5.238 -4.38,-1.408 -8.963,-3.424 -8.963,-9.667 0,-7.603 6.646,-11.5809997 13.594,-11.5809997 3.979,0 7.856,1.058 10.929,3.7269997"
   id="path3788"
   inkscape:connector-curvature="0"
   style="fill:#305aa6" />
<path
   d="m 455.021,42.443002 c 0,1.36 -1.057,2.417 -2.418,2.417 -1.358,0 -2.418,-1.058 -2.418,-2.417 0,-1.36 1.06,-2.417 2.418,-2.417 1.36,0 2.418,1.057 2.418,2.417"
   id="path3790"
   inkscape:connector-curvature="0"
   style="fill:#305aa6" />
<path
   d="m 467.46,12.081002 c 0,1.257 -0.959,2.265 -2.268,2.265 -1.257,0 -2.265,-1.008 -2.265,-2.265 0,-1.26 1.008,-2.2679997 2.265,-2.2679997 1.309,0 2.268,1.0079997 2.268,2.2679997 m -3.779,9.213 h 3.022 v 23.263 h -3.022 z"
   id="path3792"
   inkscape:connector-curvature="0"
   style="fill:#305aa6" />
<path
   d="m 498.427,32.925002 c 0,6.95 -4.984,12.236 -12.235,12.236 -7.15,0 -12.237,-5.135 -12.237,-12.236 0,-7.048 5.036,-12.234 12.237,-12.234 7.099,0 12.235,5.135 12.235,12.234 m -12.235,9.518 c 5.438,0 9.216,-4.029 9.216,-9.519 0,-5.487 -3.778,-9.515 -9.267,-9.515 -5.336,0 -9.164,4.027 -9.164,9.515 0,5.44 3.726,9.519 9.215,9.519"
   id="path3794"
   inkscape:connector-curvature="0"
   style="fill:#305aa6" />
<g
   id="g3818"
   transform="translate(74,8.0000023)">
	<rect
   x="447.27701"
   y="0.81"
   width="3.322"
   height="35.648998"
   id="rect3796" />
	<path
   d="M 479.454,22.713 V 36.46 h -3.022 V 22.864 c 0,-5.135 -1.913,-7.553 -5.841,-7.553 -4.884,0 -8.056,3.576 -8.056,9.618 V 36.46 h -3.02 V 19.489 c 0,-0.502 -0.254,-5.89 -0.254,-6.293 h 3.022 c 0.052,1.31 0.052,3.374 0.202,4.079 h 0.15 c 1.36,-2.869 4.533,-4.682 7.956,-4.682 5.892,10e-4 8.863,3.172 8.863,10.12"
   id="path3798"
   inkscape:connector-curvature="0" />
	<path
   d="m 489.226,6.5 h 3.021 v 6.696 h 6.647 v 2.718 h -6.647 v 15.208 c 0,1.963 1.158,3.221 3.224,3.221 1.158,0 2.315,-0.302 3.423,-0.805 l 0.251,2.72 c -1.359,0.503 -3.022,0.806 -3.978,0.806 -3.926,0 -5.941,-2.368 -5.941,-5.941 V 15.915 h -5.035 v -2.718 h 5.035 z"
   id="path3800"
   inkscape:connector-curvature="0" />
	<path
   d="m 525.532,23.77 v 1.813 h -19.538 c 0.252,4.886 3.375,8.763 8.813,8.763 3.121,0 6.293,-1.661 7.804,-4.13 l 2.216,1.864 c -2.366,3.524 -5.943,4.984 -10.071,4.984 -7.049,0 -11.783,-4.984 -11.783,-12.284 0,-6.749 4.683,-12.186 11.632,-12.186 6.144,-10e-4 10.927,4.28 10.927,11.176 m -3.021,-0.906 c -0.049,-4.331 -3.675,-7.552 -8.106,-7.552 -4.582,0 -7.905,3.524 -8.41,7.552 z"
   id="path3802"
   inkscape:connector-curvature="0" />
	<path
   d="m 552.524,17.124 h 0.101 v -3.928 h 3.022 v 21.653 c 0,9.012 -4.632,13.695 -12.437,13.695 -4.282,0 -8.963,-1.61 -11.481,-4.884 l 2.366,-2.216 c 2.115,2.971 5.538,4.381 9.164,4.381 6.043,0 9.366,-3.525 9.366,-10.424 v -3.473 h -0.101 c -1.763,2.77 -4.783,4.53 -8.812,4.53 -6.748,0 -12.437,-5.286 -12.437,-11.934 0,-6.646 5.841,-11.933 12.437,-11.933 4.029,0.002 7.05,1.764 8.812,4.533 m -9.012,16.618 c 5.188,0 9.214,-4.23 9.214,-9.216 0,-4.984 -4.079,-9.214 -9.265,-9.214 -5.036,0 -9.164,4.178 -9.164,9.214 0,4.934 3.978,9.216 9.215,9.216"
   id="path3804"
   inkscape:connector-curvature="0" />
	<path
   d="m 575.188,12.844 -0.353,2.972 c -0.401,-0.151 -0.806,-0.203 -1.208,-0.203 -4.885,0 -7.553,3.324 -7.553,8.159 V 36.46 h -3.021 V 19.49 c 0,-0.502 -0.251,-5.891 -0.251,-6.294 h 3.019 c 0.052,1.763 0.101,3.524 0.202,4.08 1.762,-3.123 4.28,-4.684 7.401,-4.684 0.556,0 1.059,0.051 1.764,0.252"
   id="path3806"
   inkscape:connector-curvature="0" />
	<path
   d="m 597.899,20.799 v 6.898 c 0,3.827 0.151,6.698 0.452,8.763 h -2.819 c -0.201,-1.058 -0.302,-2.216 -0.302,-3.776 h -0.1 c -1.762,3.021 -4.281,4.378 -8.107,4.378 -4.985,0 -8.259,-2.667 -8.259,-6.896 0,-5.29 4.734,-7.806 12.69,-7.806 h 3.726 V 21 c 0,-3.826 -2.517,-5.689 -6.546,-5.689 -2.668,0 -5.037,0.856 -7.098,2.619 l -1.763,-2.065 c 2.215,-2.116 5.79,-3.273 8.861,-3.273 6.143,10e-4 9.265,3.073 9.265,8.207 m -10.776,13.546 c 5.388,0 8.056,-3.072 8.056,-7.956 v -1.611 h -3.625 c -5.136,0 -9.768,1.46 -9.768,5.235 0,2.57 2.317,4.332 5.337,4.332"
   id="path3808"
   inkscape:connector-curvature="0" />
	<path
   d="m 607.671,6.5 h 3.022 v 6.696 h 6.646 v 2.718 h -6.646 v 15.208 c 0,1.963 1.158,3.221 3.221,3.221 1.159,0 2.317,-0.302 3.425,-0.805 l 0.252,2.72 c -1.361,0.503 -3.022,0.806 -3.978,0.806 -3.929,0 -5.942,-2.368 -5.942,-5.941 V 15.915 h -5.036 v -2.718 h 5.036 z"
   id="path3810"
   inkscape:connector-curvature="0" />
	<path
   d="m 627.009,3.983 c 0,1.257 -0.958,2.265 -2.268,2.265 -1.258,0 -2.265,-1.008 -2.265,-2.265 0,-1.26 1.007,-2.268 2.265,-2.268 1.311,0 2.268,1.008 2.268,2.268 m -3.777,9.213 h 3.02 v 23.263 h -3.02 z"
   id="path3812"
   inkscape:connector-curvature="0" />
	<path
   d="m 657.976,24.827 c 0,6.95 -4.983,12.236 -12.235,12.236 -7.15,0 -12.236,-5.135 -12.236,-12.236 0,-7.048 5.037,-12.234 12.236,-12.234 7.1,0 12.235,5.135 12.235,12.234 m -12.235,9.518 c 5.438,0 9.214,-4.029 9.214,-9.519 0,-5.487 -3.777,-9.515 -9.265,-9.515 -5.337,0 -9.166,4.027 -9.166,9.515 10e-4,5.44 3.728,9.519 9.217,9.519"
   id="path3814"
   inkscape:connector-curvature="0" />
	<path
   d="M 684.667,22.713 V 36.46 h -3.021 V 22.864 c 0,-5.135 -1.914,-7.553 -5.84,-7.553 -4.886,0 -8.058,3.576 -8.058,9.618 V 36.46 h -3.021 V 19.489 c 0,-0.502 -0.251,-5.89 -0.251,-6.293 h 3.022 c 0.049,1.31 0.049,3.374 0.201,4.079 h 0.152 c 1.357,-2.869 4.531,-4.682 7.956,-4.682 5.89,10e-4 8.86,3.172 8.86,10.12"
   id="path3816"
   inkscape:connector-curvature="0" />
</g>
<g
   transform="matrix(0.63394366,0,0,0.63394366,-35.503904,-65.841447)"
   id="g3868"><path
     style="fill:#305aa6"
     inkscape:connector-curvature="0"
     d="m 137.422,162.434 c -1.654,-2.894 -4.666,-4.488 -7.737,-4.488 -1.536,0 -3.071,0.413 -4.43,1.182 -0.531,0.295 -1.004,0.649 -1.417,1.004 l -9.037,-5.197 c -1.418,-0.827 -3.189,-0.355 -4.017,1.062 -0.828,1.417 -0.354,3.189 1.063,4.017 l 9.096,5.256 c -0.354,2.009 -0.06,4.136 1.062,6.024 1.654,2.895 4.666,4.49 7.737,4.49 1.536,0 3.071,-0.414 4.488,-1.183 4.196,-2.421 5.672,-7.914 3.192,-12.167 z"
     id="path3852" /><path
     style="fill:#305aa6"
     inkscape:connector-curvature="0"
     d="m 102.161,176.255 v -10.631 c 0,-1.654 -1.3,-2.953 -2.954,-2.953 -1.654,0 -2.953,1.299 -2.953,2.953 v 10.454 c -0.591,0.177 -1.182,0.473 -1.772,0.768 -4.253,2.48 -5.729,7.914 -3.249,12.226 1.654,2.895 4.666,4.489 7.737,4.489 1.537,0 3.072,-0.413 4.489,-1.182 4.253,-2.48 5.729,-7.914 3.249,-12.226 -1.062,-1.831 -2.717,-3.189 -4.547,-3.898 z"
     id="path3854" /><path
     style="fill:#305aa6"
     inkscape:connector-curvature="0"
     d="m 83.497,154.934 -9.273,5.315 c -1.654,-1.477 -3.78,-2.244 -5.906,-2.244 -1.536,0 -3.071,0.413 -4.489,1.181 -4.252,2.48 -5.729,7.914 -3.248,12.227 1.654,2.894 4.666,4.488 7.737,4.488 1.535,0 3.071,-0.413 4.489,-1.181 3.366,-1.949 4.961,-5.671 4.312,-9.273 l 9.332,-5.374 c 1.417,-0.828 1.89,-2.6 1.063,-4.017 -0.827,-1.478 -2.599,-1.95 -4.017,-1.122 z"
     id="path3856" /><path
     style="fill:#305aa6"
     inkscape:connector-curvature="0"
     d="m 111.848,138.514 c -1.418,0.827 -1.891,2.599 -1.063,4.016 0.828,1.417 2.599,1.89 4.017,1.063 l 8.918,-5.138 c 1.595,1.358 3.662,2.067 5.729,2.067 1.535,0 3.071,-0.414 4.488,-1.182 4.253,-2.48 5.729,-7.914 3.249,-12.226 -1.654,-2.894 -4.666,-4.488 -7.737,-4.488 -1.536,0 -3.071,0.413 -4.43,1.181 -3.426,1.949 -5.021,5.848 -4.312,9.51 z"
     id="path3858" /><path
     style="fill:#305aa6"
     inkscape:connector-curvature="0"
     d="m 103.401,156.587 c 4.075,-2.362 5.493,-7.619 3.13,-11.694 -2.362,-4.076 -7.619,-5.493 -11.694,-3.13 -4.075,2.362 -5.493,7.619 -3.13,11.695 2.362,4.074 7.619,5.491 11.694,3.129 z"
     id="path3860" /><path
     style="fill:#305aa6"
     inkscape:connector-curvature="0"
     d="M 72.748,120.913 Z"
     id="path3862" /><path
     style="fill:#305aa6"
     inkscape:connector-curvature="0"
     d="M 62.529,127.646 Z"
     id="path3864" /><path
     style="fill:#305aa6"
     inkscape:connector-curvature="0"
     d="m 114.506,122.271 c -0.06,-2.067 -0.532,-4.076 -1.3,-5.907 -0.827,-1.831 -2.009,-3.543 -3.485,-5.021 -1.535,-1.535 -3.308,-2.776 -5.315,-3.603 -1.949,-0.827 -4.076,-1.181 -6.261,-1.181 -2.186,0 -4.312,0.414 -6.261,1.181 -1.949,0.827 -3.721,2.008 -5.315,3.603 -1.123,1.123 -2.067,2.363 -2.835,3.721 -0.295,0.591 -0.59,1.123 -0.827,1.713 -0.059,0 -0.177,0 -0.236,0 -1.89,0 -3.721,0.354 -5.375,1.063 -1.713,0.708 -3.249,1.771 -4.548,3.071 -1.123,1.123 -2.067,2.422 -2.717,3.78 -0.118,0 -0.236,0 -0.354,0 -1.358,0 -2.658,0.236 -3.898,0.768 -1.24,0.532 -2.303,1.3 -3.249,2.245 -0.945,0.945 -1.713,2.067 -2.185,3.249 -0.532,1.24 -0.768,2.54 -0.768,3.898 0,1.359 0.236,2.658 0.768,3.898 0.532,1.24 1.24,2.303 2.185,3.249 0.945,0.945 2.008,1.654 3.189,2.185 1.182,0.532 2.481,0.768 3.78,0.768 h 0.059 13.466 c 1.654,0 2.953,-1.299 2.953,-2.953 0,-1.654 -1.299,-2.954 -2.953,-2.954 H 69.558 c -0.591,0 -1.122,-0.118 -1.536,-0.295 -0.473,-0.177 -0.886,-0.473 -1.3,-0.886 -0.472,-0.473 -0.768,-0.886 -0.945,-1.359 -0.177,-0.473 -0.295,-1.004 -0.295,-1.595 0,-0.649 0.118,-1.122 0.295,-1.594 0.177,-0.473 0.473,-0.886 0.945,-1.359 v 0 c 0.473,-0.473 0.886,-0.768 1.359,-0.945 0.473,-0.177 0.945,-0.295 1.595,-0.295 0.531,0 0.945,0.059 1.358,0.177 0.768,0.236 1.654,0.177 2.362,-0.236 0.709,-0.414 1.24,-1.063 1.417,-1.831 0.354,-1.358 1.004,-2.48 2.126,-3.662 v 0 c 0.827,-0.827 1.713,-1.417 2.658,-1.831 0.945,-0.414 1.949,-0.591 3.13,-0.591 0.65,0 1.182,0.059 1.772,0.177 1.595,0.354 3.13,-0.708 3.485,-2.303 0.177,-0.945 0.531,-1.831 1.004,-2.658 0.473,-0.827 1.063,-1.654 1.831,-2.422 1.063,-1.063 2.186,-1.831 3.367,-2.304 1.181,-0.472 2.54,-0.768 4.016,-0.768 1.476,0 2.834,0.236 4.016,0.768 1.182,0.473 2.304,1.241 3.367,2.304 1.004,1.004 1.712,2.067 2.244,3.189 0.473,1.122 0.768,2.362 0.826,3.78 0.06,1.654 1.418,2.895 3.072,2.835 1.656,-0.056 2.837,-1.415 2.779,-3.069 z"
     id="path3866" /></g></svg>